{"title":"Argo 2012 BluRay 10Bit 1080p DD5.1 H265-d3g","magnet":"magnet:?xt=urn:btih:e6b68215cf9b348c4d4a558f7712a7693ffc06e6&dn=Argo+2012+BluRay+10Bit+1080p+DD5.1+H265-d3g&tr=udp%3A%2F%2Ftracker.leechers-paradise.org%3A6969&tr=udp%3A%2F%2Fzer0day.ch%3A1337&tr=udp%3A%2F%2Fopen.demonii.com%3A1337&tr=udp%3A%2F%2Ftracker.coppersurfer.tk%3A6969&tr=udp%3A%2F%2Fexodus.desync.com%3A6969","uploader":"roflcopter2110","categoryP":"video","categoryS":"hd___movies","size":"2997462334","seeders":"20","leechers":"13","description":"Argo 2012 BluRay 10Bit 1080p DD5.1 H265-d3g\r\n <a href=\"\nhttps://i.imgur.com/6KlJBSO.jpg\" rel=\"nofollow\" target=\"_NEW\">\nhttps://i.imgur.com/6KlJBSO.jpg</a>\r\n\r\nPlot:\r\nOn Nov. 4, 1979, militants storm the U.S. embassy in Tehran, Iran, taking 66 American hostages. Amid the chaos, six Americans manage to slip away and find refuge with the Canadian ambassador. Knowing that it&apos;s just a matter of time before the refugees are found and likely executed, the U.S. government calls on extractor Tony Mendez (Ben Affleck) to rescue them. Mendez&apos;s plan is to pose as a Hollywood producer scouting locations in Iran and train the refugees to act as his &quot;film&quot; crew.\r\n\r\nRelease date: October 12, 2012 (USA)\r\n\r\nInfo:\r\nSource: BlueRay ISO\r\n\r\nFormat: Matroska\r\nFormat version: Version 2\r\nFile size: 2.79 GiB\r\nDuration: 2 h 0 min\r\nOverall bit rate: 3 320 kb/s\r\nMovie name: Argo 2012 BluRay 10Bit 1080p DD5.1 H265-d3g\r\nEncoded date: UTC 2017-11-16 18:38:31\r\nWriting application: DVDFab 10.0.6.6\r\nWriting library: libebml v1.3.4 + libmatroska v1.4.5\r\n\r\nVideo\r\nID: 1\r\nFormat: HEVC\r\nFormat/Info: High Efficiency Video Coding\r\nFormat profile: Main <a href=\"/cdn-cgi/l/email-protection\" class=\"__cf_email__\" data-cfemail=\"6f5e5f2f235b\">[email&#xA0;protected]</a>@High\r\nCodec ID: V_MPEGH/ISO/HEVC\r\nDuration: 2 h 0 min\r\nBit rate: 2 870 kb/s\r\nWidth: 1 920 pixels\r\nHeight: 800 pixels\r\nDisplay aspect ratio: 2.40:1\r\nFrame rate mode: Constant\r\nFrame rate: 23.976 (24000/1001) FPS\r\nColor space: YUV\r\nChroma subsampling: 4:2:0\r\nBit depth: 10 bits\r\nBits/(Pixel*Frame): 0.078\r\nStream size: 2.41 GiB (86%)\r\nDefault: Yes\r\nForced: No\r\nColor range: Limited\r\nColor primaries: BT.709\r\nTransfer characteristics: BT.709\r\nMatrix coefficients: BT.709\r\n\r\nAudio\r\nID: 2\r\nFormat: AC-3\r\nFormat/Info: Audio Coding 3\r\nFormat settings, Endianness: Big\r\nCodec ID: A_AC3\r\nDuration: 2 h 0 min\r\nBit rate mode: Constant\r\nBit rate: 448 kb/s\r\nChannel(s): 6 channels\r\nChannel positions: Front: L C R, Side: L R, LFE\r\nSampling rate: 48.0 kHz\r\nFrame rate: 31.250 FPS (1536 SPF)\r\nBit depth: 16 bits\r\nCompression mode: Lossy\r\nStream size: 386 MiB (13%)\r\nLanguage: English\r\nService kind: Complete Main\r\nDefault: Yes\r\nForced: No\r\n\r\nText\r\nID: 3\r\nFormat: VobSub\r\nCodec ID: S_VOBSUB\r\nCodec ID/Info: Picture based subtitle format used on DVDs\r\nDuration: 1 h 57 min\r\nBit rate: 180 b/s\r\nCount of elements: 66\r\nStream size: 156 KiB (0%)\r\nLanguage: English\r\nDefault: Yes\r\nForced: No\r\n\r\nScreens: <a href=\"\nhttps://i.imgur.com/vFDkhnd.jpg\" rel=\"nofollow\" target=\"_NEW\">\nhttps://i.imgur.com/vFDkhnd.jpg</a> <a href=\"\nhttps://i.imgur.com/Ghgl3we.jpg\" rel=\"nofollow\" target=\"_NEW\">\nhttps://i.imgur.com/Ghgl3we.jpg</a> <a href=\"\nhttps://i.imgur.com/nAknDO0.jpg\" rel=\"nofollow\" target=\"_NEW\">\nhttps://i.imgur.com/nAknDO0.jpg</a> <a href=\"\nhttps://i.imgur.com/YYQPDBx.jpg\" rel=\"nofollow\" target=\"_NEW\">\nhttps://i.imgur.com/YYQPDBx.jpg</a>","last_updated":"2017-11-19T12:09:27.888Z","parsed":{"xt":"urn:btih:e6b68215cf9b348c4d4a558f7712a7693ffc06e6","dn":"Argo 2012 BluRay 10Bit 1080p DD5.1 H265-d3g","tr":["udp://exodus.desync.com:6969","udp://open.demonii.com:1337","udp://tracker.coppersurfer.tk:6969","udp://tracker.leechers-paradise.org:6969","udp://zer0day.ch:1337"],"infoHash":"e6b68215cf9b348c4d4a558f7712a7693ffc06e6","infoHashBuffer":{"type":"Buffer","data":[230,182,130,21,207,155,52,140,77,74,85,143,119,18,167,105,63,252,6,230]},"name":"Argo 2012 BluRay 10Bit 1080p DD5.1 H265-d3g","announce":["udp://exodus.desync.com:6969","udp://open.demonii.com:1337","udp://tracker.coppersurfer.tk:6969","udp://tracker.leechers-paradise.org:6969","udp://zer0day.ch:1337"],"urlList":[]}}